<svg width="220" height="420" viewBox="0 0 220 420" xmlns="http://www.w3.org/2000/svg" role="img" aria-label="Cherry blossom branch">
  <defs>
    <linearGradient id="twig" x1="0%" y1="0%" x2="0%" y2="100%">
      <stop offset="0%" stop-color="#9b6a59" />
      <stop offset="100%" stop-color="#6a3d2c" />
    </linearGradient>
    <radialGradient id="petal" cx="50%" cy="50%" r="50%">
      <stop offset="0%" stop-color="#fff4f4" />
      <stop offset="100%" stop-color="#f5bfc4" />
    </radialGradient>
  </defs>
  <path d="M142 0 C130 60 120 120 130 170 C140 220 170 260 150 320 C130 380 80 400 60 420" stroke="url(#twig)" stroke-width="8" fill="none" stroke-linecap="round" />
  <path d="M70 180 C40 200 30 220 40 250 C55 300 30 330 10 350" stroke="url(#twig)" stroke-width="6" fill="none" stroke-linecap="round" />
  <g fill="url(#petal)" stroke="#f3a0a9" stroke-width="1.5">
    <circle cx="150" cy="70" r="18" />
    <circle cx="128" cy="160" r="22" />
    <circle cx="168" cy="210" r="20" />
    <circle cx="134" cy="280" r="24" />
    <circle cx="108" cy="350" r="20" />
    <circle cx="58" cy="215" r="16" />
    <circle cx="36" cy="270" r="18" />
    <circle cx="24" cy="330" r="16" />
  </g>
  <g fill="#f8d8dd">
    <circle cx="150" cy="70" r="4" />
    <circle cx="128" cy="160" r="5" />
    <circle cx="168" cy="210" r="4" />
    <circle cx="134" cy="280" r="5" />
    <circle cx="108" cy="350" r="4" />
    <circle cx="58" cy="215" r="3" />
    <circle cx="36" cy="270" r="3" />
    <circle cx="24" cy="330" r="3" />
  </g>
</svg>
